<svg id="Layer_1" data-name="Layer 1" xmlns="http://www.w3.org/2000/svg" width="400" height="250" viewBox="0 0 400 250">
  <g>
    <path d="M223.54744,195.59075a2.44293,2.44293,0,0,1-2.31968,2.5523h.01355a2.44293,2.44293,0,0,1-2.31969-2.5523h0c-3.094,0-5.61046,2.31334-7.99659,3.85791l1.84351,3.49656,2.5718-.76326v10.33013h11.78841V202.182l2.5718.76326,2.14127-3.3534c-2.38614-1.54457-5.20034-4.00107-8.29438-4.00107Z" fill="#19b9b1"/>
    <path d="M280.34032,195.59075a2.44293,2.44293,0,0,1-2.31969,2.5523h.01355a2.44293,2.44293,0,0,1-2.31968-2.5523h0c-3.094,0-5.61047,2.31334-7.9966,3.85791l1.84351,3.49656,2.5718-.76326v10.33013h11.78841V202.182l2.5718.76326,2.14127-3.3534c-2.38613-1.54457-5.20034-4.00107-8.29437-4.00107Z" fill="#0fb9b2"/>
    <rect x="76.60058" y="18.39516" width="248.61659" height="213.20968" rx="4.30724" fill="none" stroke="#7ccdcd" stroke-miterlimit="10" stroke-width="2"/>
    <path d="M158.41475,128.7091h-6.96531v-4.31878A7.829,7.829,0,0,0,150.738,108.829a7.52918,7.52918,0,0,0-5.507,2.20094,7.88617,7.88617,0,0,0-2.28507,5.57556.91359.91359,0,0,0,.44352.78524.896.896,0,0,0,.89844,0,.91315.91315,0,0,0,.44351-.7842A6.02643,6.02643,0,0,1,146.548,112.321a5.71317,5.71317,0,0,1,6.17488-1.17162,5.969,5.969,0,0,1,3.60106,5.2889,6.084,6.084,0,0,1-1.639,4.32916,5.66817,5.66817,0,0,1-4.1474,1.85922h-.59307a.31827.31827,0,0,0-.31888.31887v5.76356h-6.96322a1.00127,1.00127,0,0,0-.92961,1.04594,1.12937,1.12937,0,0,0,.25447.72811.85141.85141,0,0,0,.64606.31991.27185.27185,0,0,0,.02908-.001h15.74723a.92126.92126,0,0,0,.68033-.31783,1.13657,1.13657,0,0,0,.25447-.73746A.99667.99667,0,0,0,158.41475,128.7091Z" fill="#231f20"/>
    <path id="Path" d="M259.77225,127.07459H230.06784c-.47149,0-.70724-.59273-.70724-1.18547s.23575-.88912.70724-.88912H259.5365a.88272.88272,0,0,1,.943.88912c0,.59274-.23575,1.18547-.70724,1.18547Z" fill="#231f20"/>
    <path id="Path-2" data-name="Path" d="M287.94008,137.29938H230.05523c-.46309,0-.69463-.59275-.69463-.88911s.46307-.88912.69463-.88912h57.88485c.46308,0,.69461.59274.69461.88912S288.40316,137.29938,287.94008,137.29938Z" fill="#231f20"/>
    <path id="Path-3" data-name="Path" d="M287.94008,146.1905H230.05523c-.46309,0-.69463-.59274-.69463-.88912s.46307-.88912.69463-.88912h57.88485c.46308,0,.69461.59274.69461.88912S288.40316,146.1905,287.94008,146.1905Z" fill="#231f20"/>
    <g>
      <polygon id="Path-4" data-name="Path" points="341.786 72.491 58.214 72.491 76.734 43.406 326.516 43.406 341.786 72.491" fill="#19b9b1"/>
      <path id="Path-5" data-name="Path" d="M123.29,97.53352l16.72351-25.0427H98.2047l16.72352,25.0427a5.05669,5.05669,0,0,0,6.92007,1.43924A3.4715,3.4715,0,0,0,123.29,97.53352Z" fill="#0e9e94"/>
      <path id="Path-6" data-name="Path" d="M83.299,97.59643l16.72352-25.10561H58.2137L74.93721,97.59643a5.1186,5.1186,0,0,0,7.20841,1.15426C82.434,98.46213,83.01063,98.17354,83.299,97.59643Z" fill="#0e9e94"/>
      <path id="Path-7" data-name="Path" d="M165.09875,97.53352l16.72352-25.0427H140.01348L156.737,97.53352a5.05671,5.05671,0,0,0,6.92009,1.43924A2.3664,2.3664,0,0,0,165.09875,97.53352Z" fill="#0e9e94"/>
      <path id="Path-8" data-name="Path" d="M206.90754,97.53352,223.631,72.49082H181.82227l16.72351,25.0427a5.05668,5.05668,0,0,0,6.92007,1.43924A3.47164,3.47164,0,0,0,206.90754,97.53352Z" fill="#0e9e94"/>
      <path id="Path-9" data-name="Path" d="M245.08077,97.53352l16.72351-25.0427H219.99551l16.7235,25.0427a5.05669,5.05669,0,0,0,6.92007,1.43924A3.47158,3.47158,0,0,0,245.08077,97.53352Z" fill="#0e9e94"/>
      <path id="Path-10" data-name="Path" d="M286.88954,97.53352l16.72351-25.0427H261.80428l16.72351,25.0427a5.05669,5.05669,0,0,0,6.92007,1.43924A2.36639,2.36639,0,0,0,286.88954,97.53352Z" fill="#0e9e94"/>
      <path id="Path-11" data-name="Path" d="M325.17732,97.53352l16.609-25.0427H299.9775l16.609,25.0427a5.001,5.001,0,0,0,6.87266,1.43924A2.93691,2.93691,0,0,0,325.17732,97.53352Z" fill="#0e9e94"/>
    </g>
    <path d="M161.81069,129.47145c0,6.95917-5.118,12.59044-11.443,12.59044h.06683c-6.32491,0-11.44295-5.63127-11.44295-12.59044h0c-15.2628,0-27.6763,11.41164-39.44705,19.031l9.094,17.24845,12.68664-3.76515V212.944h58.152v-50.9583l12.68664,3.76515,10.56283-16.54224c-11.77074-7.61935-25.65317-19.7372-40.916-19.7372Z" fill="#ee3f47"/>
    <circle id="Oval" cx="98.56993" cy="33.13151" r="4.44546" fill="#ee3f47"/>
    <circle id="Oval-2" data-name="Oval" cx="124.99194" cy="33.13151" r="4.44546" fill="#0fb9b2"/>
    <circle id="Oval-3" data-name="Oval" cx="112.0431" cy="33.13151" r="4.44546" fill="#f2c994"/>
    <rect x="258.99765" y="153.30338" width="29.71605" height="9.08751" rx="1.43407" fill="#7ccdcd"/>
    <path d="M257.32673,199.036a5.73436,5.73436,0,0,0-2.61652-.04311l.269-2.47724-15.27832-.239,1.78425,16.66737h11.70994l.35306-3.251c.17516.01718.34672.02648.512.02648.049,0,.098,0,.14617-.00087a6.44276,6.44276,0,0,0,2.31335-.44464,5.52405,5.52405,0,0,0,3.65426-4.17855C260.71928,201.8841,259.13679,199.73794,257.32673,199.036Zm1.25514,5.79693a3.92869,3.92869,0,0,1-2.6372,2.93478,4.97024,4.97024,0,0,1-1.75929.33786,3.8318,3.8318,0,0,1-.46127-.03282l.80339-7.3977a5.40986,5.40986,0,0,1,2.21542-.13534C257.94205,201.00533,258.97662,202.5108,258.58187,204.8329Z" fill="#19b9b1"/>
    <path d="M163.15593,155.43535l-3.697,6.4007a.8985.8985,0,0,0,.863,1.31177h7.394a.8985.8985,0,0,0,.863-1.31177l-3.697-6.4007A1.02034,1.02034,0,0,0,163.15593,155.43535Z" fill="#fff"/>
  </g>
</svg>
