<svg id="Layer_1" data-name="Layer 1" xmlns="http://www.w3.org/2000/svg" width="400" height="250" viewBox="0 0 400 250">
  <g>
    <rect x="79.37331" y="19.68655" width="245.6049" height="210.6269" rx="4.30724" fill="none" stroke="#7ccdcd" stroke-miterlimit="10" stroke-width="2"/>
    <path d="M160.19639,128.66417h-6.88092v-4.26646a7.73413,7.73413,0,0,0-.70287-15.37281,7.43792,7.43792,0,0,0-5.4403,2.17428,7.79059,7.79059,0,0,0-2.25739,5.508.90249.90249,0,0,0,.43814.77572.88515.88515,0,0,0,.88756,0,.90206.90206,0,0,0,.43814-.77469,5.95342,5.95342,0,0,1,1.79462-4.23363,5.644,5.644,0,0,1,6.10008-1.15742,5.89667,5.89667,0,0,1,3.55744,5.22482,6.01037,6.01037,0,0,1-1.61917,4.27673,5.59956,5.59956,0,0,1-4.09715,1.83669h-.5859a.31442.31442,0,0,0-.315.315v5.69374h-6.87887a.98914.98914,0,0,0-.91835,1.03327,1.11566,1.11566,0,0,0,.25139.71929.84107.84107,0,0,0,.63823.316.26792.26792,0,0,0,.02873-.001h15.55647a.91005.91005,0,0,0,.67209-.314,1.1228,1.1228,0,0,0,.25139-.72852A.9846.9846,0,0,0,160.19639,128.66417Z" fill="#231f20"/>
    <path id="Path" d="M260.32607,127.04946H230.9815c-.46578,0-.69867-.58556-.69867-1.17111S230.51572,125,230.9815,125h29.11168a.872.872,0,0,1,.93157.87835c0,.58555-.2329,1.17111-.69868,1.17111Z" fill="#231f20"/>
    <path id="Path-2" data-name="Path" d="M288.15269,137.15039H230.969c-.45748,0-.68621-.58558-.68621-.87834s.45746-.87835.68621-.87835h57.18365c.45746,0,.68619.58556.68619.87835S288.61015,137.15039,288.15269,137.15039Z" fill="#231f20"/>
    <path id="Path-3" data-name="Path" d="M288.15269,145.9338H230.969c-.45748,0-.68621-.58556-.68621-.87835s.45746-.87834.68621-.87834h57.18365c.45746,0,.68619.58556.68619.87834S288.61015,145.9338,288.15269,145.9338Z" fill="#231f20"/>
    <path id="Path-4" data-name="Path" d="M288.15269,154.71721H230.969c-.45748,0-.68621-.58556-.68621-.87835s.45746-.87834.68621-.87834h57.18365c.45746,0,.68619.58555.68619.87834S288.61015,154.71721,288.15269,154.71721Z" fill="#231f20"/>
    <g>
      <polygon id="Path-5" data-name="Path" points="341.347 73.127 61.209 73.127 79.505 44.395 326.262 44.395 341.347 73.127" fill="#19b9b1"/>
      <path id="Path-6" data-name="Path" d="M125.49712,97.86624,142.018,73.12691H100.71572l16.52094,24.73933a4.99543,4.99543,0,0,0,6.83624,1.42181A3.42953,3.42953,0,0,0,125.49712,97.86624Z" fill="#0e9e94"/>
      <path id="Path-7" data-name="Path" d="M85.99055,97.92839l16.52093-24.80148H61.20916L77.73009,97.92839a5.0566,5.0566,0,0,0,7.12109,1.14028C85.136,98.7836,85.70571,98.49852,85.99055,97.92839Z" fill="#0e9e94"/>
      <path id="Path-8" data-name="Path" d="M166.79943,97.86624l16.52094-24.73933H142.018L158.539,97.86624a4.99544,4.99544,0,0,0,6.83625,1.42181A2.33776,2.33776,0,0,0,166.79943,97.86624Z" fill="#0e9e94"/>
      <path id="Path-9" data-name="Path" d="M208.10175,97.86624l16.52091-24.73933H183.32037l16.52092,24.73933a4.99543,4.99543,0,0,0,6.83624,1.42181A3.42959,3.42959,0,0,0,208.10175,97.86624Z" fill="#0e9e94"/>
      <path id="Path-10" data-name="Path" d="M245.81256,97.86624l16.52093-24.73933H221.03117L237.5521,97.86624a4.99543,4.99543,0,0,0,6.83624,1.42181A3.42959,3.42959,0,0,0,245.81256,97.86624Z" fill="#0e9e94"/>
      <path id="Path-11" data-name="Path" d="M287.11487,97.86624,303.6358,73.12691H262.33349l16.52092,24.73933a4.99543,4.99543,0,0,0,6.83624,1.42181A2.33776,2.33776,0,0,0,287.11487,97.86624Z" fill="#0e9e94"/>
      <path id="Path-12" data-name="Path" d="M324.93883,97.86624l16.40779-24.73933H300.04428l16.40779,24.73933a4.94042,4.94042,0,0,0,6.7894,1.42181A2.90131,2.90131,0,0,0,324.93883,97.86624Z" fill="#0e9e94"/>
    </g>
    <path d="M163.5512,129.41728c0,6.87487-5.056,12.43792-11.30434,12.43792h.066c-6.2483,0-11.30434-5.56305-11.30434-12.43792h0c-15.0779,0-27.341,11.27341-38.96919,18.80046l8.98384,17.0395,12.533-3.71954v50.341h57.44754v-50.341l12.533,3.71954,10.43487-16.34185c-11.62815-7.52705-25.34241-19.49811-40.42031-19.49811Z" fill="none" stroke="#231f20" stroke-linecap="round" stroke-linejoin="round" stroke-width="1.4"/>
    <circle id="Oval" cx="101.07653" cy="34.24439" r="4.39161" fill="#ee3f47"/>
    <circle id="Oval-2" data-name="Oval" cx="127.17847" cy="34.24439" r="4.39161" fill="#0fb9b2"/>
    <circle id="Oval-3" data-name="Oval" cx="114.38649" cy="34.24439" r="4.39161" fill="#f2c994"/>
    <rect x="259.56085" y="162.62227" width="29.35608" height="8.97743" rx="1.43407" fill="#7ccdcd"/>
  </g>
</svg>
