<?xml version="1.0" encoding="utf-8"?>
<!-- Generator: Adobe Illustrator 25.4.1, SVG Export Plug-In . SVG Version: 6.00 Build 0)  -->
<svg version="1.1" id="Layer_1" xmlns="http://www.w3.org/2000/svg" xmlns:xlink="http://www.w3.org/1999/xlink" x="0px" y="0px"
	 viewBox="0 0 400 250" style="enable-background:new 0 0 400 250;" xml:space="preserve">
<style type="text/css">
	.st0{fill:none;}
	.st1{fill:none;stroke:#FFFFFF;stroke-width:4;stroke-miterlimit:10;}
	.st2{fill:#FFFFFF;stroke:#7CCDCD;stroke-width:2;stroke-miterlimit:10;}
	.st3{fill:#17BCB5;}
	.st4{fill:none;stroke:#17BCB5;stroke-linecap:square;stroke-miterlimit:10;}
	.st5{clip-path:url(#SVGID_00000095323999341534358810000000574677556794946226_);}
	.st6{fill-rule:evenodd;clip-rule:evenodd;fill:#ECC19C;}
	.st7{fill:#ECC19C;}
	.st8{fill:#08524D;}
	.st9{fill:#B7B7B8;}
	.st10{clip-path:url(#SVGID_00000168086148464736425760000011580415555210849412_);}
	.st11{fill:none;stroke:#ECC19C;stroke-width:0.76;stroke-miterlimit:10;}
	.st12{opacity:0.16;fill:url(#SVGID_00000036947484085736804370000011672866339630167195_);enable-background:new    ;}
	.st13{fill:#CC936D;}
	.st14{fill:none;stroke:#A46C35;stroke-width:1.21;stroke-miterlimit:10;}
	.st15{fill:#A46C35;}
	.st16{fill:none;stroke:#1ABAB3;stroke-width:1.97;stroke-miterlimit:10;}
</style>
<pattern  y="250" width="133.3" height="133.3" patternUnits="userSpaceOnUse" id="New_Pattern" viewBox="0 -133.3 133.3 133.3" style="overflow:visible;">
	<g>
		<rect y="-133.3" class="st0" width="133.3" height="133.3"/>
		<rect y="-133.3" class="st0" width="133.3" height="133.3"/>
		<line class="st1" x1="44.8" y1="0" x2="44.8" y2="-133.3"/>
		<line class="st1" x1="88.5" y1="0" x2="88.5" y2="-133.3"/>
		<line class="st1" x1="133.3" y1="-44.8" x2="0" y2="-44.8"/>
		<line class="st1" x1="133.3" y1="-88.5" x2="0" y2="-88.5"/>
	</g>
</pattern>
<g>
	<g id="Layer_1_00000182521471111643560560000000997569141027156663_">
		<path class="st2" d="M240.1,77.5L127,17c-11.3-6.1-25.5-1.8-31.6,9.5c-1.9,3.6-2.9,7.7-2.8,11.8l6.1,185.4
			c0.4,12.9,11.2,23,24,22.5c4.1-0.1,8.1-1.3,11.5-3.5l157.5-97.9c10.9-6.8,14.3-21.2,7.5-32.1c-2.2-3.5-5.2-6.3-8.8-8.2L266,91.3"
			/>
		<path class="st3" d="M281,55v6h-6.3v-5.9c-5.8-0.3-11.4-2.8-15.6-6.8l5.1-7.1c2.8,2.9,6.5,4.9,10.5,5.6V36.3
			c-6.8-1.6-14.1-4.3-14.1-13.2c0-6.7,5.3-12.4,14.1-13.2V3.8h6.3V10c5,0.4,9.7,2.5,13.4,5.9l-5.2,6.8c-2.3-2.1-5.1-3.6-8.2-4.3v9.2
			c6.8,1.7,14.4,4.4,14.4,13.4C295.4,48.2,290.7,54,281,55z M275.3,26.3v-8.4c-3.4,0.3-5.1,2-5.1,4.4
			C270.2,24.4,272.3,25.5,275.3,26.3L275.3,26.3z M285.9,42.1c0-2.4-2.4-3.5-5.5-4.5v9.2C284.1,46.3,285.8,44.3,285.9,42.1
			L285.9,42.1z"/>
		<path class="st4" d="M236.7,11l12.5,4.9"/>
		<line class="st4" x1="236.8" y1="32.5" x2="248.6" y2="30.5"/>
		<path class="st4" d="M241.5,50.4l6.5-4.3"/>
		<g>
			<defs>
				<path id="SVGID_1_" d="M133.5,242.8l169.6-105.4c12.6-7.8,20.2-70,7.1-77L200.8-6.9c-13-7-103.6,19.6-103.1,34.4l6.5,199.6
					c0.4,10.6,9.2,18.9,19.8,18.6C127.4,245.6,130.6,244.6,133.5,242.8z"/>
			</defs>
			<clipPath id="SVGID_00000029017197781760712100000007185903998617221506_">
				<use xlink:href="#SVGID_1_"  style="overflow:visible;"/>
			</clipPath>
			<g style="clip-path:url(#SVGID_00000029017197781760712100000007185903998617221506_);">
				<path class="st6" d="M216.3,258c0.2,1.8,2.2,1.3,2.4-0.4c0.1-3.2,0.1-6.4-0.1-9.5c-0.5-3.2-1.2-6.5-2.2-9.6
					c-0.5-3.3-1.9-4.6-3.3-7.9c-0.6-1.4-6.3-15.6-7.1-17.2c-4.2,0.7-8.1,2.9-12.1,4.3c-0.3,1.7,2.7,9.7,2.2,11.6
					c-0.5,1.9-1.9,4.9-2.6,6.9c-0.5,1.3-0.6,2.6-0.2,3.9c0.9,2.8,0.9,5.9,0,8.7c0.6,0.9,1.8,1.2,2.7,0.6c0.1,0,0.1-0.1,0.2-0.1
					c2.1-2.8,2.8-4.5,2.2-8.1l0.8,1.1c1.3,4.8,2.2,9.7,2.8,14.6c0,1.8,0.2,3.5,0.5,5.3c0.5,1.8,2.5,2,2.7-1
					c0.2-3.9,0.6-10.3-0.5-14.7c0.1-0.1,0.3-0.1,0.5,0c1.4,4.2,1.1,11.5,1.4,15.2c0.2,2.9,0.2,5.2,2.5,5c1.2,0,1.3-3.2,1.3-6
					s0.7-10.2-0.3-13.8c0.1-0.1,0.3-0.2,0.5-0.1c1,3.1,1,14.1,1.2,15.6c0.2,1.5,0.3,2.4,1.7,2.1c1.4-0.9,1.4-0.9,1.7-3.4
					c-0.2-4.6,0.2-10.6-1-15.7c0.2-0.2,0.3-0.3,0.6-0.4c0.8,2.9,1.3,5.8,1.5,8.8C216.4,255.9,216.2,256.2,216.3,258L216.3,258z"/>
				<path class="st7" d="M206.5,214.9c-4.2-14.7-11.8-37.9-15.3-47.3c-8.1-67.9-10-67-10-67s-13.5,3-14.8,9.7
					c-2.9,22.1,2.6,39.4,5.8,63.2c2.1,6.7,15.4,30.8,21.8,46.3C194.5,219.6,206.4,215,206.5,214.9z"/>
				<path class="st8" d="M181.2,100.6l11.5,30.1l-39.8,2.4c0,0,1.7-31.1,6.2-31.9S181.2,100.6,181.2,100.6z"/>
				<polygon class="st9" points="239.5,151.1 218.7,151.1 235.2,110.5 256,110.5 				"/>
				<path class="st7" d="M157.9,222.7l-4.2,122.6l0,0c-0.1,3.2-1.1,6.3-2.8,9l-0.4,0.6l0,0c-0.3,0.3-0.5,0.6-0.8,0.9
					c-0.3,0.3-0.6,0.8-0.9,1.2c-0.6,0.8-1.3,1.6-1.9,2.5l-0.9,1.3l-0.9,1.3c-0.6,0.9-1.3,1.7-1.9,2.6c-1.2,1.8-2.4,3.6-3.5,5.5
					c-1.1,1.9-2.4,3.7-3.4,5.7s-2.3,3.8-3.3,5.8l-1.6,2.9l-0.8,1.5l-0.8,1.5l-3,6l-2.8,6.1l-0.7,1.5l-0.6,1.6l-1.4,3.1
					c-0.9,2.1-1.8,4.2-2.5,6.3l-2.4,6.4c-0.8,2.1-1.4,4.3-2.1,6.5c-1.5,4.3-2.6,8.7-3.8,13.2c-0.7,2.2-1.1,4.4-1.6,6.7l-1.6,6.8
					L94,450.4l0.2-7.3c0.1-2.4,0-4.9,0.3-7.3c0.4-4.8,0.6-9.8,1.2-14.6c0.3-2.4,0.5-4.9,0.9-7.3l1.2-7.3c0.3-2.4,0.9-4.9,1.3-7.3
					l0.7-3.6l0.4-1.8l0.4-1.8l1.7-7.2l1.9-7.2l0.5-1.8l0.5-1.8l1.1-3.6c0.7-2.4,1.5-4.7,2.4-7.2c0.8-2.4,1.7-4.7,2.6-7.1
					c0.9-2.4,1.9-4.7,2.8-7.1c0.5-1.2,1-2.4,1.5-3.5l0.8-1.8l0.8-1.8c0.6-1.2,1.1-2.4,1.7-3.5c0.3-0.6,0.6-1.2,0.9-1.8
					c0.4-0.7,0.6-1.2,1.2-2.1l0,0l-3.2,9.6l4.2-122.6L157.9,222.7z"/>
				<path class="st7" d="M157.2,207.4l59.3,115.7l2.1,3.9v7.1c0,1.2,0,2.5,0.1,3.8c0.1,2.6,1.7,38.8,3,49.4
					c0.7,5.3,1.4,10.6,2.2,15.9s1.6,10.6,2.4,15.9c0.4,2.6,0.9,5.3,1.3,7.9l1.4,7.9l3,15.8l-17.6,4.8l-5.2-15.6l-2.5-7.8
					c-0.8-2.6-1.7-5.2-2.5-7.8c-1.6-5.2-3.2-10.5-4.7-15.8s-3-10.6-4.4-15.9c-2.8-10.7-5.5-21.4-7.8-32.3
					c-1.2-5.4-2.4-10.9-3.3-16.5c-0.5-2.8,0.5,0.3,0-2.5c-0.2-1.4-0.4-2.8-0.7-4.3l-0.3-2.2l-0.2-1.2l-0.1-0.6l-0.1-0.7l0,0l2,7.5
					L125.4,224L157.2,207.4z"/>
				<g>
					<defs>
						<path id="SVGID_00000033349373973019594680000014463778569702916236_" d="M229.1,434.8c-6.4-36.2-10.4-107.8-10.4-107.8
							l-61.4-119.6l-27.3,14.4l-7.9-0.3l-4.1,118.8c-0.4,0.9-1.2,2.5-1.6,3.4c-4.6,10.4-8.5,21.1-11.7,32.1
							c-6.9,24.3-10.5,49.4-10.6,74.6l13.2,1.3c7.5-34.7,21.2-68.9,43.3-96.8l3-4.7l0.2-4.9l2.2-63.3l24.8,49.9
							c1.4,9.7,4.6,18.7,6.6,28.2c7.2,32.2,16.3,64,27.2,95.2l17.6-4.8L229.1,434.8z"/>
					</defs>
					<clipPath id="SVGID_00000006699687063951777940000015847565265021105553_">
						<use xlink:href="#SVGID_00000033349373973019594680000014463778569702916236_"  style="overflow:visible;"/>
					</clipPath>
					<g style="clip-path:url(#SVGID_00000006699687063951777940000015847565265021105553_);">
						<path class="st7" d="M128.8,194.7c-11.8,36.3-10,98.7-11.1,136.9l101.9-6.2L192.7,215l3.9-60.6L182.4,123c0,0,3-13.8,0.5-13.9
							c-25.8-11.3-38-15.6-68.8-3.8C104.6,135.3,126.3,190.3,128.8,194.7z"/>
					</g>
				</g>
				<path class="st11" d="M176.5,118.1c-0.5-5-1.4-10-2.5-14.9"/>
				<path class="st8" d="M127,186.2l-4.2,18.3c-3.2,13.9-5,28.2-5.3,42.5l-1.6,76l101.9-6.1L191,206.6l3.9-60.6l-14.2-31.5
					c0,0,3-13.8,0.5-13.9c-1.2-0.1-13.7-5.6-22.5-8.9c-13.6-5.2-32.6,0.4-46.3,5.1l-1.3,9.7C104.5,133.8,127,186.2,127,186.2z"/>
				
					<pattern  id="SVGID_00000088842966762858772980000017099403192320533923_" xlink:href="#New_Pattern" patternTransform="matrix(0.7175 0 0 -0.7175 -1442.6782 -10180.96)">
				</pattern>
				
					<path style="opacity:0.16;fill:url(#SVGID_00000088842966762858772980000017099403192320533923_);enable-background:new    ;" d="
					M127,186.2l-4.2,18.3c-3.2,13.9-5,28.2-5.3,42.5l-1.6,76l101.9-6.1L191,206.6l3.9-60.6l-14.2-31.5c0,0,3-13.8,0.5-13.9
					c-1.2-0.1-13.7-5.6-22.5-8.9c-13.6-5.2-32.6,0.4-46.3,5.1l-1.3,9.7C104.5,133.8,127,186.2,127,186.2z"/>
				<path class="st7" d="M162.3,100.7L143,91c1.8-3.5,8.6-18.9,9.8-22l20,8.2C171.5,80.3,164.5,96.3,162.3,100.7z"/>
				<path class="st13" d="M165.6,93.3l-18-12.6c1.8-3.5,3.9-8.6,5.2-11.7l20,8.2C171.5,80.3,167.8,88.9,165.6,93.3z"/>
				<path d="M201.9,33.3c-0.1,1.2-4,51-4,51l-44.5-6.2l5.3-45.4L201.9,33.3z"/>
				<path class="st7" d="M160.2,13.7c-8.6,3.2-12.1,14.6-11.5,23.7s6.7,17.9,15.4,20.8c4,1.2,8.2,1.6,12.3,1.2
					c7.4-0.6,15.2-3,19.8-8.8c6-7.6,4.6-19.4-1.4-27.1S179.8,6.3,160.2,13.7z"/>
				<path class="st7" d="M157.8,49.9c-2.5,9-0.7,18.7,4.9,26.2c1.2,1.7,2.8,3.2,4.5,4.3c3.1,1.9,6.9,2.1,10.6,2.2
					c2.2,0.2,4.5-0.1,6.5-0.9c2-1,7.3-11.1,8.4-13c6.1-10.4,1-14.4,3.4-27.5"/>
				<path class="st7" d="M196,46.2c-0.6,4.8-1,10.1,1.6,14.2c0.8,1.2,1.9,2.5,1.5,3.9c-0.7,2.6-5.3,2-6.4,4.4"/>
				<path class="st14" d="M184.3,66.9c2.2,1.8,4.6,3.2,7.2,4.2"/>
				<path class="st15" d="M184.8,49.3c1.3,2.4,4.1,3.7,6.7,3.1l0.4,2c-3.4,0.5-6.7-1.4-8.1-4.6L184.8,49.3z"/>
				<path class="st14" d="M185.5,42.1c3.9-0.9,7.9,1.2,9.5,4.8"/>
				<path class="st11" d="M196.3,30.2c-5.9,4-12.4,7.2-19.2,9.4"/>
				<path d="M204,41.2c0.8-11.6-6.8-23.5-19.4-30.1c-15.3-8-34.3-3.2-41.1,10.4c-2.4,5-3,10.6-1.8,16L204,41.2z"/>
				<path d="M182.8,34.6c-5.1-1.6-9.8,13.1-9.8,13.1l5.8,37.9l-44.5-6.2l5-43.2c2.8-22.5,17.4-30.2,33.3-28.3l0,0L182.8,34.6z"/>
				<path class="st7" d="M136.4,106.8c0.1,2.4,0.3,4.8,0.6,7.2c0.4,2.6,0.8,5.3,1.3,8c1,5.4,2.2,10.9,3.5,16.3
					c1.3,5.4,2.8,10.9,4.5,16.1c0.8,2.6,1.7,5.2,2.6,7.6c0.4,1.2,0.9,2.4,1.4,3.3c0.2,0.5,0.4,0.9,0.6,1.2l0.1,0.2v0.1l0,0
					c0,0,0-0.1-0.3-0.4l0,0l-8.6-3.9c5.2,0.2,10.4,0.1,15.5-0.4c5.2-0.5,10.4-1.3,15.6-2.4c5-1.1,10-2.6,14.8-4.5
					c4.5-1.7,8.8-4.1,12.6-7.1l11.4,12.9c-4.8,4.5-10.3,8.2-16.2,11.1c-5.6,2.8-11.4,5.1-17.4,7c-5.9,1.8-11.8,3.3-17.9,4.3
					c-6.1,1.1-12.3,1.8-18.5,2.1l-5,0.2l-3.6-4.1l0,0c-0.6-0.7-1.1-1.4-1.6-2.1l-0.3-0.4l-0.2-0.4c-0.2-0.3-0.3-0.5-0.5-0.8
					c-0.6-1-1-1.8-1.4-2.6c-0.8-1.6-1.5-3.2-2.1-4.7c-1.3-3-2.4-5.9-3.4-8.8c-2.1-5.8-3.9-11.5-5.6-17.3c-1.7-5.8-3.2-11.6-4.6-17.6
					c-0.7-3-1.3-6-1.9-9.2c-0.6-3.4-1-6.7-1.3-10.1L136.4,106.8z"/>
				<path class="st7" d="M234.5,143.2c0.2,1-6.4,13.1-7.2,13.8c-0.8,0.6-1.8,1.1-2.8,1.3c-6.1,1.8-12.7,3.9-18.8,2.2l-4.8-11.8
					c2.3-3.5,8.2-8.3,10-12.1c0.4-1.1,1-2,1.8-2.9c1.8-1.9,4.6-2.2,7.1-2.4l7.6-0.6l11.7,7.4L234.5,143.2z"/>
				<path class="st7" d="M158.6,89.2c-6.4,0.1-12.7,0.7-19,1.6c1.1,4.6,3.1,8.9,5.8,12.8c6.7,9.9,15.9,15.4,20.6,12.3
					s3.1-13.8-3.5-23.7C161.7,91.1,159.3,90.1,158.6,89.2z"/>
				<polyline class="st16" points="227.4,107.3 245.4,82.1 252.7,93.9 273.3,66.9 				"/>
				<polyline class="st16" points="274.8,78 273.5,67 262.5,68.3 				"/>
				<path class="st8" d="M112,96.8l-7.2,35.3l37.4-2.6c0,0-1.7-31.1-6.2-31.9S112,96.8,112,96.8z"/>
			</g>
		</g>
		<line class="st4" x1="313.6" y1="11.8" x2="305" y2="17"/>
		<line class="st4" x1="316.9" y1="33.5" x2="305.4" y2="31.7"/>
		<path class="st4" d="M313.2,48.2l-7.8-4.4"/>
	</g>
</g>
</svg>
